<svg xmlns="http://www.w3.org/2000/svg" viewBox="0 0 193.056 193.056" width="512" height="512"><path d="M163.022 147.499H62.417l-2.13-8.714h114.017l18.466-80.448L42.135 40.28 35.234 0H.286v15.217h22.116l3.969 23.173-.32-.038 18.184 100.435h.383l2.214 9.049c-10.774 1.798-19.021 11.164-19.021 22.44 0 12.562 10.218 22.78 22.777 22.78 12.559 0 22.78-10.218 22.78-22.78 0-2.65-.479-5.192-1.319-7.558h69.512a22.648 22.648 0 00-1.319 7.558c0 12.562 10.218 22.78 22.775 22.78 12.562 0 22.78-10.218 22.78-22.78.008-12.558-10.213-22.777-22.775-22.777zM44.818 55.925l129.331 15.507-11.968 52.136H56.946L46.89 68.018l-2.072-12.093zm5.776 121.912c-4.169 0-7.56-3.393-7.56-7.563 0-4.167 3.391-7.558 7.56-7.558s7.56 3.394 7.56 7.558c0 4.172-3.391 7.563-7.56 7.563zm112.428.003c-4.167 0-7.558-3.393-7.558-7.563 0-4.167 3.393-7.558 7.558-7.558 4.172 0 7.563 3.393 7.563 7.558.003 4.169-3.391 7.563-7.563 7.563z" data-original="#000000" class="active-path" data-old_color="#000000" fill="#D2D2D2"/></svg>